<?xml version="1.0" encoding="UTF-8" standalone="no"?>
<!-- Created with Inkscape (http://www.inkscape.org/) -->

<svg
   width="300"
   height="300"
   viewBox="0 0 300 300"
   version="1.1"
   id="svg1"
   sodipodi:docname="enemy_spike.svg"
   inkscape:version="1.4 (e7c3feb100, 2024-10-09)"
   inkscape:export-filename="enemy_spike.svg"
   inkscape:export-xdpi="96"
   inkscape:export-ydpi="96"
   xmlns:inkscape="http://www.inkscape.org/namespaces/inkscape"
   xmlns:sodipodi="http://sodipodi.sourceforge.net/DTD/sodipodi-0.dtd"
   xmlns="http://www.w3.org/2000/svg"
   xmlns:svg="http://www.w3.org/2000/svg">
  <sodipodi:namedview
     id="namedview1"
     pagecolor="#ffffff"
     bordercolor="#000000"
     borderopacity="0.25"
     inkscape:showpageshadow="2"
     inkscape:pageopacity="0.0"
     inkscape:pagecheckerboard="0"
     inkscape:deskcolor="#d1d1d1"
     inkscape:zoom="2.6633333"
     inkscape:cx="150"
     inkscape:cy="150"
     inkscape:window-width="1920"
     inkscape:window-height="1008"
     inkscape:window-x="0"
     inkscape:window-y="0"
     inkscape:window-maximized="1"
     inkscape:current-layer="svg1" />
  <defs
     id="defs1" />
  <g
     id="layer1" />
  <path
     sodipodi:type="star"
     style="fill:#ff0000"
     id="path1"
     inkscape:flatsided="false"
     sodipodi:sides="20"
     sodipodi:cx="161.82729"
     sodipodi:cy="140.42554"
     sodipodi:r1="140.7384"
     sodipodi:r2="112.59072"
     sodipodi:arg1="0.80426385"
     sodipodi:arg2="0.96134348"
     inkscape:rounded="0"
     inkscape:randomized="0"
     d="m 259.44931,241.80225 -33.17297,-9.05667 -2.93212,34.26181 -28.7507,-18.86442 -13.3761,31.67884 -21.51411,-26.82559 -22.51073,25.99493 -12.17157,-32.16087 -29.441847,17.76645 -1.637598,-34.34804 -33.490996,7.79887 9.056678,-33.17297 -34.261813,-2.93212 18.864423,-28.7507 L 22.431013,159.81567 49.2566,138.30156 23.261671,115.79084 55.422546,103.61926 37.656096,74.177414 72.004129,72.539817 64.205262,39.04882 l 33.172967,9.056678 2.932121,-34.261812 28.7507,18.864423 13.3761,-31.6788443 21.51411,26.8255873 22.51073,-25.9949299 12.17157,32.1608759 29.44185,-17.766451 1.6376,34.348034 33.49099,-7.798867 -9.05668,33.172966 34.26182,2.932124 -18.86443,28.750696 31.67885,13.3761 -26.82559,21.51411 25.99493,22.51073 -32.16087,12.17157 17.76645,29.44185 -34.34804,1.6376 z"
     transform="matrix(1.0760689,0,0,1.0760689,-24.137316,-1.1075598)" />
</svg>
