<?xml version="1.0" encoding="UTF-8" standalone="no"?>
<!-- Created with Inkscape (http://www.inkscape.org/) -->

<svg
   width="300"
   height="300"
   viewBox="0 0 300 300"
   version="1.1"
   id="svg1"
   xmlns="http://www.w3.org/2000/svg"
   xmlns:svg="http://www.w3.org/2000/svg">
  <defs
     id="defs1" />
  <g
     id="layer1">
    <path
       style="fill:#ff0000;fill-opacity:1"
       id="path1"
       d="m 207.67209,185.801 2.02986,6.58032 -6.74399,-1.39269 1.61266,6.6948 -6.64323,-1.81341 1.18912,6.78285 -6.51626,-2.22696 0.76087,6.84413 -6.36357,-2.63173 0.32962,6.8784 -6.18576,-3.0261 -0.10293,6.88552 -5.98355,-3.40854 -0.53506,6.86547 -5.75772,-3.77752 -0.9651,6.81833 -5.50916,-4.1316 -1.39132,6.74427 -5.23887,-4.46937 -1.81205,6.64361 -4.94789,-4.7895 -2.22563,6.51671 -4.6374,-5.09073 -2.63043,6.36411 -4.30859,-5.37187 -3.02485,6.18638 -3.96279,-5.63181 -3.40732,5.98425 -3.60134,-5.86953 -3.77635,5.75849 -3.22569,-6.08407 -4.13048,5.51001 -2.8373,-6.27461 -4.4683,5.23978 -2.43772,-6.44038 -4.788497,4.94887 -2.028514,-6.58074 -5.089786,4.63844 -1.611303,-6.69513 -5.370992,4.3097 -1.187734,-6.78309 -5.631001,3.96394 -0.759477,-6.84428 -5.868787,3.60254 -0.328222,-6.87846 -6.083413,3.22693 0.104329,-6.8855 -6.27403,2.83858 0.536467,-6.86536 -6.439885,2.43904 0.966488,-6.81814 -6.580326,2.02986 1.392694,-6.74399 -6.694796,1.61267 1.813405,-6.64323 -6.782847,1.18911 2.226959,-6.51626 -6.844127,0.76088 2.631724,-6.36357 -6.878398,0.32962 3.026103,-6.18577 -6.885522,-0.10292 3.408539,-5.98355 -6.865472,-0.53507 3.777523,-5.75771 -6.818328,-0.9651 4.131599,-5.50917 -6.744274,-1.39131 4.469369,-5.23887 -6.6436042,-1.81205 4.7895012,-4.9479 -6.5167149,-2.22563 5.0907319,-4.6374 -6.364108,-2.63042 5.371871,-4.3086 -6.1863839,-3.02484 5.6318099,-3.96279 -5.9842452,-3.40732 5.8695222,-3.60135 L 5.452929,107.93632 11.537,104.71063 6.0269925,100.58016 12.3016,97.742853 7.0618208,93.274551 13.502203,90.836832 8.5533298,86.048339 l 6.5807392,-2.028514 -4.638436,-5.089786 6.695125,-1.611303 -4.309692,-5.370992 6.783088,-1.187734 -3.963941,-5.631001 6.844282,-0.759477 -3.602545,-5.868787 6.878464,-0.328222 -3.226933,-6.083413 6.885501,0.104329 -2.838585,-6.27403 6.865363,0.536467 -2.439033,-6.439885 6.81813,0.966488 -2.029857,-6.580326 6.74399,1.392694 -1.612669,-6.694796 6.643234,1.813405 -1.189117,-6.782847 6.516261,2.226959 -0.760873,-6.844127 6.363571,2.631724 -0.329625,-6.878398 6.185766,3.026103 0.102924,-6.885522 5.98355,3.408539 0.535066,-6.8654723 5.757718,3.7775233 0.965097,-6.818328 5.509164,4.131599 1.391319,-6.7442743 5.238868,4.4693695 1.81205,-6.6436044 4.947896,4.7895015 2.22563,-6.5167152 4.6374,5.0907315 2.63042,-6.3641076 4.3086,5.3718707 3.02484,-6.1863836 3.96279,5.6318095 3.40732,-5.9842448 3.60135,5.8695222 3.77635,-5.758489 3.22569,6.0840706 4.13048,-5.5100071 2.8373,6.2746079 4.4683,-5.2397796 2.43772,6.4403822 4.78849,-4.94887318 2.02852,6.58073928 5.08978,-4.6384358 1.61131,6.6951251 5.37099,-4.3096925 1.18773,6.7830881 5.631,-3.9639407 0.75948,6.8442817 5.86879,-3.6025453 0.32822,6.8784643 6.08341,-3.226933 -0.10433,6.885501 6.27403,-2.838585 -0.53646,6.865363 6.43988,-2.439033 -0.96649,6.81813 6.58033,-2.029857 -1.3927,6.74399 6.6948,-1.612669 -1.8134,6.643234 6.78284,-1.189117 -2.22696,6.516261 6.84413,-0.760873 -2.63172,6.363571 6.87839,-0.329625 -3.0261,6.185766 6.88552,0.102924 -3.40854,5.98355 6.86548,0.535066 -3.77753,5.757718 6.81833,0.965097 -4.1316,5.509164 6.74428,1.391319 -4.46937,5.238868 6.6436,1.81205 -4.7895,4.947896 6.51672,2.22563 -5.09074,4.637397 6.36411,2.630426 -5.37187,4.308601 6.18638,3.02484 -5.6318,3.96279 5.98424,3.40732 -5.86952,3.60135 5.75849,3.77634 -6.08407,3.2257 5.51,4.13047 -6.2746,2.83731 5.23978,4.4683 -6.44039,2.43772 4.94888,4.78849 -6.58074,2.02851 4.63843,5.08979 -6.69512,1.6113 4.30969,5.37099 -6.78309,1.18774 3.96394,5.631 -6.84428,0.75948 3.60255,5.86878 -6.87847,0.32822 3.22693,6.08342 -6.8855,-0.10433 2.83859,6.27403 -6.86536,-0.53647 2.43903,6.43989 z"
       transform="matrix(1.2772852,0,0,1.2772852,-6.8231244,5.1664119)" />
  </g>
</svg>
